<svg width="19" height="19" viewBox="0 0 19 19" fill="none" xmlns="http://www.w3.org/2000/svg">
<g clip-path="url(#clip0)">
<path d="M9.5 11.875C10.8117 11.875 11.875 10.8117 11.875 9.5C11.875 8.18832 10.8117 7.125 9.5 7.125C8.18832 7.125 7.125 8.18832 7.125 9.5C7.125 10.8117 8.18832 11.875 9.5 11.875Z" stroke="white" stroke-width="2" stroke-linecap="round" stroke-linejoin="round"/>
<path d="M15.3584 11.875C15.253 12.1138 15.2216 12.3787 15.2682 12.6355C15.3147 12.8923 15.4372 13.1293 15.6197 13.3159L15.6672 13.3634C15.8144 13.5104 15.9312 13.685 16.0108 13.8772C16.0905 14.0695 16.1315 14.2755 16.1315 14.4836C16.1315 14.6916 16.0905 14.8977 16.0108 15.0899C15.9312 15.2821 15.8144 15.4567 15.6672 15.6038C15.5201 15.751 15.3455 15.8678 15.1533 15.9474C14.9611 16.0271 14.755 16.0681 14.547 16.0681C14.3389 16.0681 14.1328 16.0271 13.9406 15.9474C13.7484 15.8678 13.5738 15.751 13.4267 15.6038L13.3792 15.5563C13.1927 15.3738 12.9557 15.2513 12.6989 15.2048C12.4421 15.1582 12.1772 15.1896 11.9384 15.295C11.7043 15.3954 11.5046 15.562 11.3639 15.7744C11.2232 15.9868 11.1478 16.2357 11.1467 16.4904V16.625C11.1467 17.0449 10.9799 17.4477 10.683 17.7446C10.3861 18.0415 9.98334 18.2084 9.56341 18.2084C9.14349 18.2084 8.74076 18.0415 8.44383 17.7446C8.1469 17.4477 7.98008 17.0449 7.98008 16.625V16.5538C7.97395 16.2917 7.88913 16.0376 7.73665 15.8244C7.58417 15.6112 7.37108 15.4488 7.12508 15.3584C6.8863 15.253 6.62143 15.2215 6.36462 15.2681C6.1078 15.3147 5.87083 15.4371 5.68425 15.6196L5.63675 15.6671C5.4897 15.8143 5.31508 15.9311 5.12286 16.0108C4.93065 16.0905 4.72461 16.1315 4.51654 16.1315C4.30846 16.1315 4.10243 16.0905 3.91022 16.0108C3.718 15.9311 3.54338 15.8143 3.39633 15.6671C3.24912 15.5201 3.13233 15.3454 3.05265 15.1532C2.97297 14.961 2.93196 14.755 2.93196 14.5469C2.93196 14.3388 2.97297 14.1328 3.05265 13.9406C3.13233 13.7484 3.24912 13.5737 3.39633 13.4267L3.44383 13.3792C3.62634 13.1926 3.74877 12.9556 3.79533 12.6988C3.8419 12.442 3.81046 12.1771 3.70508 11.9384C3.60473 11.7042 3.4381 11.5045 3.2257 11.3638C3.0133 11.2232 2.76441 11.1477 2.50966 11.1467H2.37508C1.95516 11.1467 1.55243 10.9799 1.2555 10.6829C0.958563 10.386 0.791748 9.98328 0.791748 9.56335C0.791748 9.14343 0.958563 8.7407 1.2555 8.44377C1.55243 8.14684 1.95516 7.98002 2.37508 7.98002H2.44633C2.70837 7.97389 2.9625 7.88907 3.17569 7.73659C3.38888 7.58411 3.55127 7.37102 3.64175 7.12502C3.74713 6.88624 3.77857 6.62137 3.732 6.36455C3.68544 6.10774 3.56301 5.87077 3.3805 5.68419L3.333 5.63669C3.18579 5.48964 3.069 5.31501 2.98932 5.1228C2.90964 4.93059 2.86863 4.72455 2.86863 4.51648C2.86863 4.3084 2.90964 4.10237 2.98932 3.91016C3.069 3.71794 3.18579 3.54332 3.333 3.39627C3.48005 3.24906 3.65467 3.13227 3.84688 3.05259C4.0391 2.97291 4.24513 2.9319 4.45321 2.9319C4.66128 2.9319 4.86731 2.97291 5.05953 3.05259C5.25174 3.13227 5.42637 3.24906 5.57341 3.39627L5.62091 3.44377C5.80749 3.62628 6.04447 3.74871 6.30128 3.79527C6.55809 3.84184 6.82297 3.8104 7.06175 3.70502H7.12508C7.35923 3.60467 7.55893 3.43803 7.69959 3.22564C7.84025 3.01324 7.91573 2.76435 7.91675 2.5096V2.37502C7.91675 1.95509 8.08356 1.55237 8.3805 1.25543C8.67743 0.958502 9.08015 0.791687 9.50008 0.791687C9.92001 0.791687 10.3227 0.958502 10.6197 1.25543C10.9166 1.55237 11.0834 1.95509 11.0834 2.37502V2.44627C11.0844 2.70102 11.1599 2.94991 11.3006 3.16231C11.4412 3.3747 11.6409 3.54133 11.8751 3.64169C12.1139 3.74707 12.3787 3.77851 12.6355 3.73194C12.8924 3.68538 13.1293 3.56295 13.3159 3.38044L13.3634 3.33294C13.5105 3.18572 13.6851 3.06894 13.8773 2.98926C14.0695 2.90958 14.2755 2.86857 14.4836 2.86857C14.6917 2.86857 14.8977 2.90958 15.0899 2.98926C15.2822 3.06894 15.4568 3.18572 15.6038 3.33294C15.751 3.47999 15.8678 3.65461 15.9475 3.84682C16.0272 4.03904 16.0682 4.24507 16.0682 4.45315C16.0682 4.66122 16.0272 4.86725 15.9475 5.05947C15.8678 5.25168 15.751 5.4263 15.6038 5.57335L15.5563 5.62085C15.3738 5.80743 15.2514 6.04441 15.2048 6.30122C15.1583 6.55803 15.1897 6.82291 15.2951 7.06169V7.12502C15.3954 7.35917 15.5621 7.55887 15.7745 7.69953C15.9869 7.84019 16.2357 7.91567 16.4905 7.91669H16.6251C17.045 7.91669 17.4477 8.0835 17.7447 8.38043C18.0416 8.67737 18.2084 9.08009 18.2084 9.50002C18.2084 9.91995 18.0416 10.3227 17.7447 10.6196C17.4477 10.9165 17.045 11.0834 16.6251 11.0834H16.5538C16.2991 11.0844 16.0502 11.1599 15.8378 11.3005C15.6254 11.4412 15.4588 11.6409 15.3584 11.875V11.875Z" stroke="white" stroke-width="2" stroke-linecap="round" stroke-linejoin="round"/>
</g>
<defs>
<clipPath id="clip0">
<rect width="19" height="19" fill="white"/>
</clipPath>
</defs>
</svg>
