<svg width="41" height="41" viewBox="0 0 41 41" fill="none" xmlns="http://www.w3.org/2000/svg">
<path d="M27.5 7H30.9167C31.8228 7 32.6919 7.35997 33.3326 8.00072C33.9734 8.64147 34.3333 9.51051 34.3333 10.4167V34.3333C34.3333 35.2395 33.9734 36.1085 33.3326 36.7493C32.6919 37.39 31.8228 37.75 30.9167 37.75H10.4167C9.51051 37.75 8.64147 37.39 8.00072 36.7493C7.35997 36.1085 7 35.2395 7 34.3333V10.4167C7 9.51051 7.35997 8.64147 8.00072 8.00072C8.64147 7.35997 9.51051 7 10.4167 7H13.8333" stroke="white" stroke-width="2" stroke-linecap="round" stroke-linejoin="round"/>
<path d="M25.625 3.41669H15.375C14.4315 3.41669 13.6667 4.18153 13.6667 5.12502V8.54169C13.6667 9.48517 14.4315 10.25 15.375 10.25H25.625C26.5685 10.25 27.3333 9.48517 27.3333 8.54169V5.12502C27.3333 4.18153 26.5685 3.41669 25.625 3.41669Z" stroke="white" stroke-width="2" stroke-linecap="round" stroke-linejoin="round"/>
<g clip-path="url(#clip0)">
<path d="M21 26.5C22.3807 26.5 23.5 25.3807 23.5 24C23.5 22.6193 22.3807 21.5 21 21.5C19.6193 21.5 18.5 22.6193 18.5 24C18.5 25.3807 19.6193 26.5 21 26.5Z" stroke="white" stroke-width="2" stroke-linecap="round" stroke-linejoin="round"/>
<path d="M27.1667 26.5C27.0557 26.7513 27.0227 27.0301 27.0717 27.3005C27.1207 27.5708 27.2496 27.8202 27.4417 28.0166L27.4917 28.0666C27.6466 28.2214 27.7696 28.4052 27.8534 28.6076C27.9373 28.8099 27.9805 29.0268 27.9805 29.2458C27.9805 29.4648 27.9373 29.6817 27.8534 29.884C27.7696 30.0864 27.6466 30.2702 27.4917 30.425C27.3369 30.5799 27.1531 30.7029 26.9507 30.7867C26.7484 30.8706 26.5315 30.9138 26.3125 30.9138C26.0935 30.9138 25.8766 30.8706 25.6743 30.7867C25.4719 30.7029 25.2881 30.5799 25.1333 30.425L25.0833 30.375C24.8869 30.1829 24.6375 30.054 24.3672 30.005C24.0968 29.956 23.818 29.989 23.5667 30.1C23.3202 30.2056 23.11 30.381 22.9619 30.6046C22.8139 30.8282 22.7344 31.0902 22.7333 31.3583V31.5C22.7333 31.942 22.5577 32.3659 22.2452 32.6785C21.9326 32.991 21.5087 33.1666 21.0667 33.1666C20.6246 33.1666 20.2007 32.991 19.8882 32.6785C19.5756 32.3659 19.4 31.942 19.4 31.5V31.425C19.3936 31.1491 19.3043 30.8816 19.1438 30.6572C18.9833 30.4328 18.759 30.2619 18.5 30.1666C18.2487 30.0557 17.9698 30.0226 17.6995 30.0716C17.4292 30.1207 17.1797 30.2495 16.9833 30.4416L16.9333 30.4916C16.7786 30.6466 16.5947 30.7695 16.3924 30.8534C16.1901 30.9373 15.9732 30.9805 15.7542 30.9805C15.5352 30.9805 15.3183 30.9373 15.1159 30.8534C14.9136 30.7695 14.7298 30.6466 14.575 30.4916C14.42 30.3369 14.2971 30.153 14.2132 29.9507C14.1294 29.7484 14.0862 29.5315 14.0862 29.3125C14.0862 29.0935 14.1294 28.8766 14.2132 28.6742C14.2971 28.4719 14.42 28.2881 14.575 28.1333L14.625 28.0833C14.8171 27.8869 14.946 27.6375 14.995 27.3671C15.044 27.0968 15.0109 26.818 14.9 26.5666C14.7944 26.3202 14.619 26.11 14.3954 25.9619C14.1718 25.8138 13.9098 25.7344 13.6417 25.7333H13.5C13.058 25.7333 12.6341 25.5577 12.3215 25.2452C12.0089 24.9326 11.8333 24.5087 11.8333 24.0666C11.8333 23.6246 12.0089 23.2007 12.3215 22.8881C12.6341 22.5756 13.058 22.4 13.5 22.4H13.575C13.8508 22.3935 14.1183 22.3042 14.3428 22.1437C14.5672 21.9832 14.7381 21.7589 14.8333 21.5C14.9443 21.2486 14.9774 20.9698 14.9283 20.6995C14.8793 20.4292 14.7505 20.1797 14.5583 19.9833L14.5083 19.9333C14.3534 19.7785 14.2305 19.5947 14.1466 19.3924C14.0627 19.19 14.0195 18.9732 14.0195 18.7541C14.0195 18.5351 14.0627 18.3182 14.1466 18.1159C14.2305 17.9136 14.3534 17.7298 14.5083 17.575C14.6631 17.42 14.8469 17.2971 15.0493 17.2132C15.2516 17.1293 15.4685 17.0862 15.6875 17.0862C15.9065 17.0862 16.1234 17.1293 16.3257 17.2132C16.5281 17.2971 16.7119 17.42 16.8667 17.575L16.9167 17.625C17.1131 17.8171 17.3625 17.946 17.6329 17.995C17.9032 18.044 18.182 18.0109 18.4333 17.9H18.5C18.7465 17.7943 18.9567 17.6189 19.1048 17.3954C19.2528 17.1718 19.3323 16.9098 19.3333 16.6416V16.5C19.3333 16.058 19.5089 15.634 19.8215 15.3215C20.1341 15.0089 20.558 14.8333 21 14.8333C21.442 14.8333 21.866 15.0089 22.1785 15.3215C22.4911 15.634 22.6667 16.058 22.6667 16.5V16.575C22.6677 16.8431 22.7472 17.1051 22.8953 17.3287C23.0433 17.5523 23.2535 17.7277 23.5 17.8333C23.7514 17.9442 24.0302 17.9773 24.3005 17.9283C24.5708 17.8793 24.8203 17.7504 25.0167 17.5583L25.0667 17.5083C25.2215 17.3534 25.4053 17.2304 25.6076 17.1465C25.8099 17.0627 26.0268 17.0195 26.2458 17.0195C26.4649 17.0195 26.6817 17.0627 26.8841 17.1465C27.0864 17.2304 27.2702 17.3534 27.425 17.5083C27.58 17.6631 27.7029 17.8469 27.7868 18.0492C27.8706 18.2516 27.9138 18.4685 27.9138 18.6875C27.9138 18.9065 27.8706 19.1234 27.7868 19.3257C27.7029 19.528 27.58 19.7119 27.425 19.8666L27.375 19.9166C27.1829 20.113 27.054 20.3625 27.005 20.6328C26.956 20.9032 26.9891 21.182 27.1 21.4333V21.5C27.2056 21.7465 27.381 21.9567 27.6046 22.1047C27.8282 22.2528 28.0902 22.3322 28.3583 22.3333H28.5C28.942 22.3333 29.366 22.5089 29.6785 22.8215C29.9911 23.134 30.1667 23.558 30.1667 24C30.1667 24.442 29.9911 24.8659 29.6785 25.1785C29.366 25.4911 28.942 25.6666 28.5 25.6666H28.425C28.1569 25.6677 27.8949 25.7472 27.6713 25.8952C27.4477 26.0433 27.2723 26.2535 27.1667 26.5V26.5Z" stroke="white" stroke-width="2" stroke-linecap="round" stroke-linejoin="round"/>
</g>
<defs>
<clipPath id="clip0">
<rect x="11" y="14" width="20" height="20" fill="white"/>
</clipPath>
</defs>
</svg>
